<svg data-v-19dbb5f8="" width="100" height="100" viewBox="0 0 52 52" fill="none" xmlns="http://www.w3.org/2000/svg" class="absolute pointer-events-none top-10 right-10"><path data-v-19dbb5f8="" d="M52.0014 25.9998C52.0014 20.857 50.4764 15.8297 47.6192 11.5537C44.762 7.27767 40.7009 3.94494 35.9496 1.97697C31.1982 0.00900333 25.97 -0.505811 20.9261 0.497636C15.8821 1.50108 11.249 3.97772 7.61268 7.61435C3.97632 11.251 1.50003 15.8843 0.496956 20.9283C-0.506116 25.9723 0.00907868 31.2005 1.9774 35.9517C3.94572 40.7029 7.27876 44.7637 11.555 47.6206C15.8313 50.4775 20.8587 52.0021 26.0014 52.0017C32.8972 52.0012 39.5104 49.2615 44.3863 44.3853C49.2622 39.509 52.0014 32.8956 52.0014 25.9998ZM11.6006 25.9998C11.6006 23.1516 12.4452 20.3673 14.0276 17.9991C15.6099 15.6309 17.859 13.7851 20.4905 12.6951C23.1219 11.6052 26.0174 11.32 28.8109 11.8757C31.6044 12.4313 34.1704 13.8029 36.1844 15.8169C38.1984 17.8309 39.5699 20.3968 40.1256 23.1903C40.6812 25.9838 40.3961 28.8794 39.3061 31.5108C38.2161 34.1422 36.3703 36.3913 34.0021 37.9737C31.6339 39.5561 28.8497 40.4007 26.0014 40.4007C24.1102 40.4009 22.2375 40.0286 20.4902 39.305C18.7429 38.5814 17.1552 37.5206 15.8179 36.1833C14.4806 34.846 13.4199 33.2584 12.6963 31.5111C11.9726 29.7638 11.6003 27.891 11.6006 25.9998Z" fill="#EDEDFD"></path></svg>